<?xml version="1.0" encoding="UTF-8"?>
<svg version="1.1" xmlns="http://www.w3.org/2000/svg" width="1280" height="1024">
<path d="M0 0 C422.4 0 844.8 0 1280 0 C1280 337.92 1280 675.84 1280 1024 C857.6 1024 435.2 1024 0 1024 C0 686.08 0 348.16 0 0 Z " fill="#090F2C" transform="translate(0,0)"/>
<path d="M0 0 C2.29010887 0.79158342 3.64717779 1.72930173 5.49902344 3.28076172 C6.13582031 3.80734375 6.77261719 4.33392578 7.42871094 4.87646484 C8.10417969 5.44558594 8.77964844 6.01470703 9.47558594 6.60107422 C10.92007887 7.797377 12.36540576 8.99267346 13.81152344 10.18701172 C14.53436523 10.78610352 15.25720703 11.38519531 16.00195312 12.00244141 C18.99568045 14.4612263 22.04307863 16.84742369 25.10058594 19.22607422 C30.84155199 23.70694827 36.49754584 28.28566219 42.13964844 32.89013672 C46.42510212 36.38137505 50.74388047 39.8242631 55.10058594 43.22607422 C60.84069261 47.70807532 66.4975184 52.28563979 72.13964844 56.89013672 C76.42510212 60.38137505 80.74388047 63.8242631 85.10058594 67.22607422 C90.84069261 71.70807532 96.4975184 76.28563979 102.13964844 80.89013672 C106.42510212 84.38137505 110.74388047 87.8242631 115.10058594 91.22607422 C120.84069261 95.70807532 126.4975184 100.28563979 132.13964844 104.89013672 C136.42510212 108.38137505 140.74388047 111.8242631 145.10058594 115.22607422 C150.84069261 119.70807532 156.4975184 124.28563979 162.13964844 128.89013672 C166.42510212 132.38137505 170.74388047 135.8242631 175.10058594 139.22607422 C180.84069261 143.70807532 186.4975184 148.28563979 192.13964844 152.89013672 C196.42510212 156.38137505 200.74388047 159.8242631 205.10058594 163.22607422 C210.84069261 167.70807532 216.4975184 172.28563979 222.13964844 176.89013672 C226.42510212 180.38137505 230.74388047 183.8242631 235.10058594 187.22607422 C240.84069261 191.70807532 246.4975184 196.28563979 252.13964844 200.89013672 C256.42510212 204.38137505 260.74388047 207.8242631 265.10058594 211.22607422 C270.84069261 215.70807532 276.4975184 220.28563979 282.13964844 224.89013672 C286.42510212 228.38137505 290.74388047 231.8242631 295.10058594 235.22607422 C300.84069261 239.70807532 306.4975184 244.28563979 312.13964844 248.89013672 C316.42510212 252.38137505 320.74388047 255.8242631 325.10058594 259.22607422 C330.84069261 263.70807532 336.4975184 268.28563979 342.13964844 272.89013672 C346.42510212 276.38137505 350.74388047 279.8242631 355.10058594 283.22607422 C360.84069261 287.70807532 366.4975184 292.28563979 372.13964844 296.89013672 C376.42510212 300.38137505 380.74388047 303.8242631 385.10058594 307.22607422 C390.84069261 311.70807532 396.4975184 316.28563979 402.13964844 320.89013672 C406.42510212 324.38137505 410.74388047 327.8242631 415.10058594 331.22607422 C420.84069261 335.70807532 426.4975184 340.28563979 432.13964844 344.89013672 C436.42510212 348.38137505 440.74388047 351.8242631 445.10058594 355.22607422 C450.84069261 359.70807532 456.4975184 364.28563979 462.13964844 368.89013672 C466.42510212 372.38137505 470.74388047 375.8242631 475.10058594 379.22607422 C480.84069261 383.70807532 486.4975184 388.28563979 492.13964844 392.89013672 C496.42510212 396.38137505 500.74388047 399.8242631 505.10058594 403.22607422 C510.84069261 407.70807532 516.4975184 412.28563979 522.13964844 416.89013672 C526.42510212 420.38137505 530.74388047 423.8242631 535.10058594 427.22607422 C540.84069261 431.70807532 546.4975184 436.28563979 552.13964844 440.89013672 C556.42510212 444.38137505 560.74388047 447.8242631 565.10058594 451.22607422 C570.84069261 455.70807532 576.4975184 460.28563979 582.13964844 464.89013672 C586.42510212 468.38137505 590.74388047 471.8242631 595.10058594 475.22607422 C600.83329411 479.70229841 606.48329664 484.27339944 612.11767578 488.87255859 C617.16825073 492.98775084 622.26831578 497.03485812 627.40917969 501.03662109 C631.03600875 503.86484181 634.62210102 506.71765483 638.10058594 509.72607422 C638.10058594 510.05607422 638.10058594 510.38607422 638.10058594 510.72607422 C216.36058594 510.72607422 -205.37941406 510.72607422 -639.89941406 510.72607422 C-636.61953244 507.44619259 -633.30374443 504.60339626 -629.64941406 501.78857422 C-624.34577587 497.6647708 -619.10212009 493.47646542 -613.89941406 489.22607422 C-608.37627694 484.71816122 -602.8075631 480.27764264 -597.18847656 475.89013672 C-592.71504698 472.38831175 -588.30074205 468.81796257 -583.89941406 465.22607422 C-578.37601721 460.71847449 -572.8075697 456.2776478 -567.18847656 451.89013672 C-562.71504698 448.38831175 -558.30074205 444.81796257 -553.89941406 441.22607422 C-548.37601721 436.71847449 -542.8075697 432.2776478 -537.18847656 427.89013672 C-532.71504698 424.38831175 -528.30074205 420.81796257 -523.89941406 417.22607422 C-518.37601721 412.71847449 -512.8075697 408.2776478 -507.18847656 403.89013672 C-502.71504698 400.38831175 -498.30074205 396.81796257 -493.89941406 393.22607422 C-488.37601721 388.71847449 -482.8075697 384.2776478 -477.18847656 379.89013672 C-472.71504698 376.38831175 -468.30074205 372.81796257 -463.89941406 369.22607422 C-458.37601721 364.71847449 -452.8075697 360.2776478 -447.18847656 355.89013672 C-442.71504698 352.38831175 -438.30074205 348.81796257 -433.89941406 345.22607422 C-428.37601721 340.71847449 -422.8075697 336.2776478 -417.18847656 331.89013672 C-412.71504698 328.38831175 -408.30074205 324.81796257 -403.89941406 321.22607422 C-398.37601721 316.71847449 -392.8075697 312.2776478 -387.18847656 307.89013672 C-382.71504698 304.38831175 -378.30074205 300.81796257 -373.89941406 297.22607422 C-368.37601721 292.71847449 -362.8075697 288.2776478 -357.18847656 283.89013672 C-352.71504698 280.38831175 -348.30074205 276.81796257 -343.89941406 273.22607422 C-338.37601721 268.71847449 -332.8075697 264.2776478 -327.18847656 259.89013672 C-322.71504698 256.38831175 -318.30074205 252.81796257 -313.89941406 249.22607422 C-308.37601721 244.71847449 -302.8075697 240.2776478 -297.18847656 235.89013672 C-292.71504698 232.38831175 -288.30074205 228.81796257 -283.89941406 225.22607422 C-278.37601721 220.71847449 -272.8075697 216.2776478 -267.18847656 211.89013672 C-262.71504698 208.38831175 -258.30074205 204.81796257 -253.89941406 201.22607422 C-248.37601721 196.71847449 -242.8075697 192.2776478 -237.18847656 187.89013672 C-232.71504698 184.38831175 -228.30074205 180.81796257 -223.89941406 177.22607422 C-218.37601721 172.71847449 -212.8075697 168.2776478 -207.18847656 163.89013672 C-202.71504698 160.38831175 -198.30074205 156.81796257 -193.89941406 153.22607422 C-188.37601721 148.71847449 -182.8075697 144.2776478 -177.18847656 139.89013672 C-172.71504698 136.38831175 -168.30074205 132.81796257 -163.89941406 129.22607422 C-158.37601721 124.71847449 -152.8075697 120.2776478 -147.18847656 115.89013672 C-142.71504698 112.38831175 -138.30074205 108.81796257 -133.89941406 105.22607422 C-128.37601721 100.71847449 -122.8075697 96.2776478 -117.18847656 91.89013672 C-112.71504698 88.38831175 -108.30074205 84.81796257 -103.89941406 81.22607422 C-98.37601721 76.71847449 -92.8075697 72.2776478 -87.18847656 67.89013672 C-82.71504698 64.38831175 -78.30074205 60.81796257 -73.89941406 57.22607422 C-68.37601721 52.71847449 -62.8075697 48.2776478 -57.18847656 43.89013672 C-52.71504698 40.38831175 -48.30074205 36.81796257 -43.89941406 33.22607422 C-38.38329573 28.72441443 -32.82282661 24.28858184 -27.21044922 19.90771484 C-21.82527615 15.69309782 -16.52114142 11.38107932 -11.22753906 7.05224609 C-9.98454691 6.03696809 -8.73836012 5.02558246 -7.48828125 4.01904297 C-6.19881058 2.96971342 -4.93879599 1.8842605 -3.68847656 0.78857422 C-1.89941406 -0.27392578 -1.89941406 -0.27392578 0 0 Z " fill="#111A37" transform="translate(639.8994140625,513.27392578125)"/>
</svg>
